<?xml version="1.0" encoding="utf-8"?>
<!-- Generator: Adobe Illustrator 22.0.1, SVG Export Plug-In . SVG Version: 6.00 Build 0)  -->
<svg version="1.1" xmlns="http://www.w3.org/2000/svg" xmlns:xlink="http://www.w3.org/1999/xlink" x="0px" y="0px"
	 viewBox="0 0 229.5 258.5" style="enable-background:new 0 0 229.5 258.5;" xml:space="preserve">
<style type="text/css">
	.st0{fill-rule:evenodd;clip-rule:evenodd;fill:#EA523B;}
	.st1{fill-rule:evenodd;clip-rule:evenodd;}
</style>
<g id="New_Layer">
	<g>
		<path class="st0" d="M62.7,161.5c-0.1-0.9-0.5-2.1-1.1-3.1c-0.9-1.5-5.2-16.3-9.5-32.8C29.1,38.7,22.8,15.4,21.8,13.1
			c-1.2-2.4-4.6-3.8-6-2.4c-1.5,1.5-0.5,7.4,4.3,24.8c2.7,9.9,10.4,38.6,17,63.6c11.3,42.4,16.2,59.8,18.3,65.6"/>
		<path class="st1" d="M203.5,234.4c-3-1.9-4.2-3.3-3.8-4.3c1.6-4,1.5-8.6-0.1-14l-1.8-5.9l3.7-5.5c7.9-11.8,6.9-17.8-2-13.1
			c-1.6,0.8-4.3,1.5-6.1,1.5c-3.1,0-3.3-0.3-4.8-5.7c-0.9-3.2-2.7-9-4-12.8c-1.3-3.9-2.6-10-2.8-13.8l-0.5-6.7h10.4
			c12.1,0,17.4-1.6,17.4-5.1c0-2.3-16.4-51.8-18.3-55.4c-0.7-1.2-1.2-10-1.3-22c-0.2-19.2-0.3-20.3-2.9-26.7c-2.1-5.3-4-8-8.6-12.2
			c-7.2-6.7-12.2-9-25.3-11.7c-11-2.2-15.5-2.1-28.5,0.6c-22.4,4.6-29.9,14-34.5,43.2c-1,6.5-2,9.1-4.8,13c-2,2.6-4.5,6.9-5.6,9.5
			c-1.6,3.7-10.3,31.6-16.9,54c-0.8,2.7,4.9,2.3,11.1-0.6c8.4-4,9.9-4.1,13.5-1c2.5,2.1,3.1,3.2,2.7,5c-0.7,2.6,0.9,4,4,3.6
			c2.1-0.3,8.4,4.1,7.4,5.1c-0.3,0.3-4.7,2.6-9.8,5.1c-5.1,2.6-12.9,6.7-17.4,9.1c-4.4,2.5-8.6,4.5-9.3,4.5c-1.4,0-2.8-7-1.9-9.4
			c0.1-0.3,0.1-0.7,0.1-1.2l-7.3,3.2c0.5,0.9,1.5,3.4,1.8,4.2c0.2,0.6,0.3,0.9,1.1,3.3c-0.6,0.6,0.8,2.1,0.8,2.9
			c0,0.8-1.2,2.7-2.6,4.2c-3.1,3.3-2.7,5.5,1.3,6.5c3.3,0.9,5.2,3.1,4.6,5.5c-0.3,0.9,0,2.6,0.6,3.8c0.9,1.5,0.8,2.6-0.1,4.1
			c-2.4,3.8,3.1,5.4,8.3,2.3c3.4-2,3.7-3.9,0.9-4.8c-1.3-0.4-2-1.5-2-3.1v-2.4l13.3,0.1c7.2,0.1,13.5,0.3,13.8,0.5
			c0.4,0.2,0.1,3.2-0.7,6.6c-1.8,8.3-1.7,16.2,0.1,22.2c0.8,2.7,1.4,5,1.3,5c-5.2,2.5-5.8,3.1-5.6,6c0.1,1.7-0.2,3.9-0.7,4.9
			c-0.6,1.4-0.3,2,1.3,2.4c1.3,0.3,2.2,1.5,2.4,3.2c0.5,4.4,3.7,3.8,10.2-2c3.3-3,7.8-5.9,10.4-6.9c2.6-0.8,6.7-2.9,9.2-4.7
			c9.1-6.3,16.8-6.5,26.5-0.8c5.6,3.2,20,9.1,26,10.6c2.8,0.6,7.3,2.9,10,4.9c8.7,6.5,9.6,6.9,15.5,6.7l5.5-0.2l0.1-4.5
			C209,238.5,208.5,237.5,203.5,234.4z"/>
		<path class="st1" d="M54.6,162.8c0.4,1.2,0.8,2,1.1,2.6"/>
	</g>
</g>
<g id="MasterLayer_1">
</g>
</svg>
