<?xml version="1.0" encoding="utf-8"?>
<!-- Generator: Adobe Illustrator 22.0.1, SVG Export Plug-In . SVG Version: 6.00 Build 0)  -->
<svg version="1.1" id="레이어_1" xmlns="http://www.w3.org/2000/svg" xmlns:xlink="http://www.w3.org/1999/xlink" x="0px"
	 y="0px" viewBox="0 0 200 200" style="enable-background:new 0 0 200 200;" xml:space="preserve">
<style type="text/css">
	.st0{fill:#2196F3;}
	.st1{fill:none;stroke:#2196F3;stroke-width:3;stroke-miterlimit:10;}
</style>
<g>
	<circle class="st0" cx="51.8" cy="89" r="22"/>
	<g>
		<circle class="st0" cx="148.8" cy="89" r="22"/>
	</g>
</g>
<path class="st1" d="M51.8,160.5c0,0,39.8,38,97,0"/>
<line class="st1" x1="8" y1="0" x2="8" y2="37"/>
<line class="st1" x1="17" y1="0" x2="17" y2="37"/>
<line class="st1" x1="26" y1="0" x2="26" y2="37"/>
<line class="st1" x1="35" y1="0" x2="35" y2="37"/>
<line class="st1" x1="44" y1="0" x2="44" y2="37"/>
<line class="st1" x1="51.8" y1="0" x2="51.8" y2="37"/>
<line class="st1" x1="60.8" y1="0" x2="60.8" y2="37"/>
<line class="st1" x1="69.8" y1="0" x2="69.8" y2="37"/>
<line class="st1" x1="78.8" y1="0" x2="78.8" y2="37"/>
<line class="st1" x1="87.8" y1="0" x2="87.8" y2="37"/>
<line class="st1" x1="95.5" y1="0" x2="95.5" y2="37"/>
<line class="st1" x1="104.5" y1="0" x2="104.5" y2="37"/>
<line class="st1" x1="113.5" y1="0" x2="113.5" y2="37"/>
<line class="st1" x1="122.5" y1="0" x2="122.5" y2="37"/>
<line class="st1" x1="131.5" y1="0" x2="131.5" y2="37"/>
<line class="st1" x1="140.5" y1="0" x2="140.5" y2="37"/>
<line class="st1" x1="149.5" y1="0" x2="149.5" y2="37"/>
<line class="st1" x1="158.5" y1="0" x2="158.5" y2="37"/>
<line class="st1" x1="167.5" y1="0" x2="167.5" y2="37"/>
<line class="st1" x1="176.5" y1="0" x2="176.5" y2="37"/>
<line class="st1" x1="184" y1="0" x2="184" y2="37"/>
<line class="st1" x1="193" y1="0" x2="193" y2="37"/>
</svg>
