<?xml version="1.0" encoding="utf-8"?>
<!-- Generator: Adobe Illustrator 22.0.1, SVG Export Plug-In . SVG Version: 6.00 Build 0)  -->
<svg version="1.1" id="레이어_1" xmlns="http://www.w3.org/2000/svg" xmlns:xlink="http://www.w3.org/1999/xlink" x="0px"
	 y="0px" viewBox="0 0 143 154" style="enable-background:new 0 0 143 154;" xml:space="preserve">
<style type="text/css">
	.st0{fill:#4CAF50;}
</style>
<g>
	<path class="st0" d="M4.8,22.8V11.5c0-1.8,0-3.3-0.1-4.3h3.2v12.9h6v2.8H4.8z"/>
	<path class="st0" d="M19.6,11.1c0.9,0,1.6,0.2,2.3,0.5s1.2,0.8,1.6,1.4c0.4,0.6,0.7,1.2,0.9,1.9c0.2,0.7,0.3,1.4,0.3,2.2
		c0,0.8-0.1,1.5-0.3,2.2c-0.2,0.7-0.5,1.3-0.9,1.9s-0.9,1.1-1.6,1.4s-1.4,0.5-2.3,0.5c-1.1,0-2.1-0.3-2.8-0.9
		c-0.8-0.6-1.4-1.4-1.7-2.3c-0.3-0.9-0.5-1.9-0.5-2.9c0-1,0.2-2,0.5-2.9c0.3-0.9,0.9-1.6,1.7-2.3C17.6,11.4,18.5,11.1,19.6,11.1z
		 M21.7,17.2c0-0.9-0.2-1.7-0.5-2.4c-0.3-0.7-0.9-1-1.6-1c-0.7,0-1.2,0.3-1.5,1c-0.3,0.7-0.5,1.5-0.5,2.4c0,0.9,0.2,1.7,0.5,2.4
		c0.3,0.7,0.8,1,1.5,1c0.7,0,1.2-0.3,1.6-1C21.5,18.9,21.7,18.1,21.7,17.2z"/>
	<path class="st0" d="M26.4,22.8v-7.7c0-1.2,0-2.5-0.1-3.8h3.2V12c0.8-0.9,2-1.3,3.5-1l-0.5,2.9c-0.8-0.3-1.4-0.3-2,0
		s-0.9,0.8-1,1.5v7.3H26.4z"/>
	<path class="st0" d="M42.9,18.6h-6.7c0.2,1.4,1,2.1,2.4,2c0.5,0,0.9-0.1,1.5-0.3s0.9-0.5,1.3-0.9l1.2,1.9c-0.5,0.6-1.1,1-1.9,1.4
		c-0.8,0.4-1.6,0.6-2.3,0.6c-1.8,0-3.1-0.6-4-1.8c-0.9-1.2-1.4-2.6-1.4-4.2c0-0.8,0.1-1.5,0.3-2.3s0.5-1.4,0.9-1.9
		c0.4-0.6,0.9-1.1,1.6-1.4c0.7-0.3,1.4-0.5,2.3-0.5c1,0,1.8,0.2,2.5,0.6c0.7,0.4,1.2,0.9,1.6,1.6c0.4,0.7,0.6,1.5,0.7,2.3
		C42.9,16.6,42.9,17.5,42.9,18.6z M38,13.8c-0.5,0-1,0.2-1.3,0.6c-0.3,0.4-0.5,0.9-0.5,1.6h3.5C39.7,14.5,39.1,13.8,38,13.8z"/>
	<path class="st0" d="M44.4,22.8v-7.2c0-1.8,0-3.3-0.1-4.3h3.2v0.6c0.6-0.5,1.3-0.8,2-0.8c1.2,0,2.2,0.4,2.8,1.3c1-0.8,2-1.3,3-1.3
		c1.3,0,2.2,0.4,2.9,1.2c0.6,0.8,1,1.9,1,3.3v7.2h-3v-7c0-1.3-0.4-2-1.2-2c-0.2,0-0.4,0-0.6,0.1c-0.2,0.1-0.4,0.2-0.6,0.4
		c-0.2,0.2-0.3,0.5-0.3,0.9v7.6h-3v-7c0-1.3-0.4-2-1.3-2c-0.3,0-0.7,0.1-1,0.3c-0.3,0.2-0.5,0.5-0.5,1v7.7H44.4z"/>
	<path class="st0" d="M69.3,6.4c0.5,0,1,0.2,1.4,0.6c0.4,0.4,0.6,0.9,0.6,1.4c0,0.6-0.2,1-0.6,1.4c-0.4,0.4-0.8,0.6-1.4,0.6
		s-1-0.2-1.4-0.6c-0.4-0.4-0.6-0.9-0.6-1.4c0-0.5,0.2-1,0.6-1.4C68.3,6.6,68.8,6.4,69.3,6.4z M67.8,22.8v-6.9c0-1.8,0-3.3-0.1-4.3
		h3.2v11.2H67.8z"/>
	<path class="st0" d="M73.3,26.1V15c0-1.4,0-2.6-0.1-3.7h3.1v0.6c0.7-0.5,1.4-0.8,2.2-0.8c1.6,0,2.8,0.6,3.6,1.7
		c0.8,1.1,1.2,2.5,1.2,4.2c0,1.7-0.4,3.1-1.2,4.2s-2,1.7-3.6,1.7c-0.7,0-1.5-0.2-2.2-0.5v3.8H73.3z M79.8,14.6
		c-0.3-0.6-0.8-0.8-1.5-0.8c-0.7,0-1.2,0.3-1.5,0.8c-0.3,0.6-0.5,1.3-0.5,2.2c0,1,0.2,1.8,0.5,2.4c0.3,0.6,0.9,0.9,1.6,0.9
		c0.6,0,1.1-0.3,1.4-1s0.5-1.4,0.5-2.3S80.1,15.2,79.8,14.6z"/>
	<path class="st0" d="M93.4,19.4c0,1.3-0.4,2.2-1.2,2.9c-0.8,0.7-1.9,1-3.2,1c-1.6,0-3.2-0.7-4.7-2l1.4-2.1c1.2,1,2.3,1.5,3.3,1.5
		c1,0,1.5-0.3,1.5-1c0-0.3-0.1-0.5-0.4-0.7c-0.2-0.2-0.5-0.3-0.8-0.4c-0.3-0.1-0.6-0.2-1-0.3c-0.4-0.1-0.7-0.2-0.8-0.2
		c-1-0.4-1.7-0.8-2.1-1.3s-0.7-1.2-0.7-2.1c0-1.1,0.4-2,1.2-2.6c0.8-0.6,1.9-0.9,3.2-0.9c1.2,0,2.5,0.4,3.9,1.3L92,14.6
		c-1-0.6-1.9-0.9-2.8-0.9c-0.9,0-1.4,0.2-1.4,0.7c0,0.3,0.1,0.6,0.3,0.7c0.2,0.1,0.5,0.3,1,0.4c0.6,0.2,1,0.3,1.3,0.4
		c0.3,0.1,0.7,0.3,1.1,0.5s0.8,0.5,1.1,0.7c0.2,0.2,0.4,0.6,0.6,1C93.3,18.5,93.4,18.9,93.4,19.4z"/>
	<path class="st0" d="M95,19v-4.1c0-1.3,0-2.5-0.1-3.5H98v7.4c0,1.3,0.5,1.9,1.4,1.9c0.4,0,0.8-0.2,1.2-0.7c0.3-0.5,0.5-1.1,0.5-1.7
		v-3.3c0-1.3,0-2.5-0.1-3.5h3.2v9c0,0.9,0.1,1.8,0.2,2.7h-2.7c-0.1-0.2-0.1-0.4-0.1-0.7c-0.7,0.7-1.6,1-2.6,1c-1.3,0-2.3-0.4-3-1.1
		C95.3,21.4,95,20.4,95,19z"/>
	<path class="st0" d="M106.3,22.8v-7.2c0-1.8,0-3.3-0.1-4.3h3.2v0.6c0.6-0.5,1.3-0.8,2-0.8c1.2,0,2.2,0.4,2.8,1.3c1-0.8,2-1.3,3-1.3
		c1.3,0,2.2,0.4,2.9,1.2c0.6,0.8,1,1.9,1,3.3v7.2h-3v-7c0-1.3-0.4-2-1.2-2c-0.2,0-0.4,0-0.6,0.1c-0.2,0.1-0.4,0.2-0.6,0.4
		c-0.2,0.2-0.3,0.5-0.3,0.9v7.6h-3v-7c0-1.3-0.4-2-1.3-2c-0.3,0-0.7,0.1-1,0.3c-0.3,0.2-0.5,0.5-0.5,1v7.7H106.3z"/>
	<path class="st0" d="M14.4,47.1h-2.7c-0.1-0.1-0.1-0.4-0.1-0.7c-0.7,0.7-1.6,1-2.6,1c-1.1,0-2-0.3-2.7-0.9s-1.3-1.3-1.6-2.2
		c-0.3-0.9-0.5-1.9-0.5-2.9c0-1.7,0.4-3.1,1.3-4.2c0.8-1.2,2.1-1.8,3.7-1.8c0.7,0,1.4,0.2,2.1,0.5v-1.2c0-1-0.1-2.1-0.2-3.4h3.2
		v13.3C14.2,45.4,14.2,46.2,14.4,47.1z M9.2,38.1c-0.7,0-1.2,0.3-1.5,0.9c-0.3,0.6-0.5,1.4-0.5,2.2c0,0.6,0,1.1,0.1,1.6
		c0.1,0.5,0.3,0.9,0.6,1.3c0.3,0.4,0.6,0.6,1.1,0.6c0.8,0,1.3-0.3,1.7-1c0.3-0.6,0.5-1.5,0.5-2.5C11.2,39.1,10.5,38.1,9.2,38.1z"/>
	<path class="st0" d="M20.7,35.4c0.9,0,1.6,0.2,2.3,0.5c0.7,0.4,1.2,0.8,1.6,1.4s0.7,1.2,0.9,1.9c0.2,0.7,0.3,1.4,0.3,2.2
		c0,0.8-0.1,1.5-0.3,2.2c-0.2,0.7-0.5,1.3-0.9,1.9S23.7,46.7,23,47s-1.4,0.5-2.3,0.5c-1.1,0-2.1-0.3-2.8-0.9
		c-0.8-0.6-1.4-1.4-1.7-2.3c-0.3-0.9-0.5-1.9-0.5-2.9c0-1,0.2-2,0.5-2.9c0.3-0.9,0.9-1.6,1.7-2.3C18.7,35.7,19.6,35.4,20.7,35.4z
		 M22.8,41.5c0-0.9-0.2-1.7-0.5-2.4c-0.3-0.7-0.9-1-1.6-1c-0.7,0-1.2,0.3-1.5,1c-0.3,0.7-0.5,1.5-0.5,2.4c0,0.9,0.2,1.7,0.5,2.4
		c0.3,0.7,0.8,1,1.5,1c0.7,0,1.2-0.3,1.6-1C22.6,43.2,22.8,42.4,22.8,41.5z"/>
	<path class="st0" d="M27.7,44.2v-8.6c0-1.8,0-3.3-0.1-4.3h3.2V44c0,0.2,0,0.3,0,0.4c0,0.1,0,0.2,0.1,0.3c0.1,0.1,0.2,0.2,0.3,0.2
		c0.1,0,0.4,0,0.6,0l0.2,2.2c-0.6,0.1-1.1,0.2-1.5,0.2C28.6,47.4,27.7,46.3,27.7,44.2z"/>
	<path class="st0" d="M37.9,35.4c0.9,0,1.6,0.2,2.3,0.5c0.7,0.4,1.2,0.8,1.6,1.4s0.7,1.2,0.9,1.9c0.2,0.7,0.3,1.4,0.3,2.2
		c0,0.8-0.1,1.5-0.3,2.2c-0.2,0.7-0.5,1.3-0.9,1.9s-0.9,1.1-1.6,1.4s-1.4,0.5-2.3,0.5c-1.1,0-2.1-0.3-2.8-0.9
		c-0.8-0.6-1.4-1.4-1.7-2.3c-0.3-0.9-0.5-1.9-0.5-2.9c0-1,0.2-2,0.5-2.9c0.3-0.9,0.9-1.6,1.7-2.3C35.9,35.7,36.8,35.4,37.9,35.4z
		 M40,41.5c0-0.9-0.2-1.7-0.5-2.4c-0.3-0.7-0.9-1-1.6-1c-0.7,0-1.2,0.3-1.5,1c-0.3,0.7-0.5,1.5-0.5,2.4c0,0.9,0.2,1.7,0.5,2.4
		c0.3,0.7,0.8,1,1.5,1c0.7,0,1.2-0.3,1.6-1C39.8,43.2,40,42.4,40,41.5z"/>
	<path class="st0" d="M44.7,47.1v-7.7c0-1.2,0-2.5-0.1-3.8h3.2v0.7c0.8-0.9,2-1.3,3.5-1l-0.5,2.9c-0.8-0.3-1.4-0.3-2,0
		s-0.9,0.8-1,1.5v7.3H44.7z"/>
	<path class="st0" d="M66.8,43.7c0,1.3-0.4,2.2-1.2,2.9c-0.8,0.7-1.9,1-3.2,1c-1.6,0-3.1-0.7-4.7-2l1.4-2.1c1.2,1,2.3,1.5,3.3,1.5
		c1,0,1.5-0.3,1.5-1c0-0.3-0.1-0.5-0.4-0.7c-0.2-0.2-0.5-0.3-0.8-0.4s-0.6-0.2-1-0.3c-0.4-0.1-0.7-0.2-0.8-0.2
		c-1-0.4-1.7-0.8-2.1-1.3c-0.5-0.5-0.7-1.2-0.7-2.1c0-1.1,0.4-2,1.2-2.6c0.8-0.6,1.9-0.9,3.2-0.9c1.2,0,2.5,0.4,3.9,1.3l-0.9,2.3
		c-1-0.6-1.9-0.9-2.8-0.9c-0.9,0-1.4,0.2-1.4,0.7c0,0.3,0.1,0.6,0.3,0.7c0.2,0.1,0.5,0.3,1,0.4c0.6,0.2,1,0.3,1.3,0.4
		c0.3,0.1,0.7,0.3,1.1,0.5c0.5,0.2,0.8,0.5,1.1,0.7c0.2,0.2,0.4,0.6,0.6,1C66.7,42.8,66.8,43.2,66.8,43.7z"/>
	<path class="st0" d="M70.2,30.7c0.5,0,1,0.2,1.4,0.6c0.4,0.4,0.6,0.9,0.6,1.4c0,0.6-0.2,1-0.6,1.4s-0.8,0.6-1.4,0.6s-1-0.2-1.4-0.6
		c-0.4-0.4-0.6-0.9-0.6-1.4c0-0.5,0.2-1,0.6-1.4C69.2,30.9,69.7,30.7,70.2,30.7z M68.7,47.1v-6.9c0-1.8,0-3.3-0.1-4.3h3.2v11.2H68.7
		z"/>
	<path class="st0" d="M73.3,38.2v-2.7H75c0-1.7,0-3.1-0.1-4.2H78v4.2h2.2v2.7H78V44c0,0.4,0.1,0.6,0.2,0.8c0.1,0.2,0.3,0.3,0.5,0.3
		c0.2,0,0.5-0.1,0.7-0.1s0.5-0.2,0.8-0.3l0.4,2.1c-0.3,0.2-0.7,0.4-1.2,0.6c-0.5,0.1-0.8,0.2-1.1,0.2c-1.1,0-2-0.3-2.5-0.9
		c-0.5-0.6-0.8-1.4-0.8-2.6v-5.9H73.3z"/>
	<path class="st0" d="M89.7,40.3c0.9-0.4,2.2-0.6,3.8-0.7c0-1-0.5-1.6-1.5-1.6c-1.3,0-2.2,0.5-2.9,1.4l-1.8-1.7
		c1.1-1.6,2.6-2.4,4.8-2.4c1.3,0,2.4,0.4,3.2,1.1c0.8,0.7,1.2,1.7,1.2,3.1v5.1c0,1,0.1,1.9,0.3,2.6h-2.7l-0.1-0.6
		c-0.7,0.6-1.6,0.9-2.7,0.9c-1.2,0-2.1-0.3-2.9-1c-0.8-0.7-1.2-1.6-1.2-2.8C87.3,42.2,88.1,41.1,89.7,40.3z M90.3,43.8
		c0,0.4,0.1,0.6,0.3,0.8c0.2,0.2,0.5,0.3,0.8,0.3c0.8,0,1.4-0.2,1.7-0.6c0.3-0.4,0.5-1.1,0.5-2.1C91.4,42.2,90.3,42.7,90.3,43.8z"/>
	<path class="st0" d="M98.7,47.1v-7.2c0-1.8,0-3.3-0.1-4.3h3.2v0.6c0.6-0.5,1.3-0.8,2-0.8c1.2,0,2.2,0.4,2.8,1.3c1-0.8,2-1.3,3-1.3
		c1.3,0,2.2,0.4,2.9,1.2s1,1.9,1,3.3v7.2h-3v-7c0-1.3-0.4-2-1.2-2c-0.2,0-0.4,0-0.6,0.1c-0.2,0.1-0.4,0.2-0.6,0.4
		c-0.2,0.2-0.3,0.5-0.3,0.9v7.6h-3v-7c0-1.3-0.4-2-1.3-2c-0.3,0-0.7,0.1-1,0.3c-0.3,0.2-0.5,0.5-0.5,1v7.7H98.7z"/>
	<path class="st0" d="M125.2,42.8h-6.7c0.2,1.4,1,2.1,2.4,2c0.5,0,0.9-0.1,1.5-0.3s0.9-0.5,1.3-0.9l1.2,1.9c-0.5,0.6-1.1,1-1.9,1.4
		c-0.8,0.4-1.6,0.6-2.3,0.6c-1.8,0-3.1-0.6-4-1.8s-1.4-2.6-1.4-4.2c0-0.8,0.1-1.5,0.3-2.3c0.2-0.7,0.5-1.4,0.9-1.9
		c0.4-0.6,0.9-1.1,1.6-1.4s1.4-0.5,2.3-0.5c1,0,1.8,0.2,2.5,0.6c0.7,0.4,1.2,0.9,1.6,1.6c0.4,0.7,0.6,1.5,0.7,2.3
		C125.2,40.9,125.2,41.8,125.2,42.8z M120.3,38.1c-0.5,0-1,0.2-1.3,0.6c-0.3,0.4-0.5,0.9-0.5,1.6h3.5
		C122,38.8,121.4,38.1,120.3,38.1z"/>
	<path class="st0" d="M125.7,38.2v-2.7h1.7c0-1.7,0-3.1-0.1-4.2h3.1v4.2h2.2v2.7h-2.2V44c0,0.4,0.1,0.6,0.2,0.8
		c0.1,0.2,0.3,0.3,0.5,0.3c0.2,0,0.5-0.1,0.7-0.1s0.5-0.2,0.8-0.3l0.4,2.1c-0.3,0.2-0.7,0.4-1.2,0.6c-0.5,0.1-0.8,0.2-1.1,0.2
		c-1.1,0-2-0.3-2.5-0.9c-0.5-0.6-0.8-1.4-0.8-2.6v-5.9H125.7z"/>
	<path class="st0" d="M137.5,46.1c0.1,1.5-0.7,3-2.2,4.3l-1.5-0.7c0.3-0.2,0.5-0.5,0.7-0.8s0.4-0.7,0.4-0.9
		c-0.4-0.1-0.7-0.3-0.9-0.6c-0.2-0.3-0.4-0.7-0.4-1.2c0-0.5,0.1-0.9,0.4-1.3c0.3-0.4,0.7-0.6,1.2-0.7c0.6-0.1,1.2,0.1,1.5,0.5
		C137.2,45.1,137.4,45.5,137.5,46.1z"/>
	<path class="st0" d="M12.5,67.8l1.4,1.9c-0.5,0.7-1.2,1.2-2,1.5s-1.6,0.5-2.4,0.5c-1.6,0-2.9-0.6-3.8-1.7s-1.4-2.6-1.4-4.3
		c0-1.7,0.5-3.1,1.4-4.3c1-1.2,2.3-1.8,3.9-1.8c1.6,0,2.9,0.5,4,1.5l-1.5,2.1c-0.7-0.6-1.5-0.9-2.3-0.9c-0.8,0-1.4,0.3-1.8,1
		S7.3,64.9,7.3,66c0,0.9,0.2,1.6,0.6,2.2c0.4,0.6,1,0.9,1.7,0.9C10.9,69.1,11.8,68.7,12.5,67.8z"/>
	<path class="st0" d="M19.4,59.7c0.9,0,1.6,0.2,2.3,0.5c0.7,0.4,1.2,0.8,1.6,1.4s0.7,1.2,0.9,1.9c0.2,0.7,0.3,1.4,0.3,2.2
		c0,0.8-0.1,1.5-0.3,2.2c-0.2,0.7-0.5,1.3-0.9,1.9s-0.9,1.1-1.6,1.4s-1.4,0.5-2.3,0.5c-1.1,0-2.1-0.3-2.8-0.9
		c-0.8-0.6-1.4-1.4-1.7-2.3c-0.3-0.9-0.5-1.9-0.5-2.9c0-1,0.2-2,0.5-2.9c0.3-0.9,0.9-1.6,1.7-2.3C17.4,60,18.3,59.7,19.4,59.7z
		 M21.5,65.8c0-0.9-0.2-1.7-0.5-2.4c-0.3-0.7-0.9-1-1.6-1c-0.7,0-1.2,0.3-1.5,1c-0.3,0.7-0.5,1.5-0.5,2.4c0,0.9,0.2,1.7,0.5,2.4
		c0.3,0.7,0.8,1,1.5,1c0.7,0,1.2-0.3,1.6-1C21.3,67.4,21.5,66.6,21.5,65.8z"/>
	<path class="st0" d="M26.1,71.4v-7.2c0-1.8,0-3.3-0.1-4.3h3.2v0.4c0.7-0.4,1.4-0.6,2.1-0.6c1.3,0,2.3,0.4,3,1.3
		c0.7,0.9,1.1,2,1.1,3.3v7h-3v-6.8c0-1.4-0.5-2.1-1.6-2.1c-0.3,0-0.7,0.1-1.1,0.4s-0.6,0.5-0.6,0.9v7.7H26.1z"/>
	<path class="st0" d="M45.8,68c0,1.3-0.4,2.2-1.2,2.9c-0.8,0.7-1.9,1-3.2,1c-1.6,0-3.1-0.7-4.7-2l1.4-2.1c1.2,1,2.3,1.5,3.3,1.5
		c1,0,1.5-0.3,1.5-1c0-0.3-0.1-0.5-0.4-0.7c-0.2-0.2-0.5-0.3-0.8-0.4s-0.6-0.2-1-0.3c-0.4-0.1-0.7-0.2-0.8-0.2
		c-1-0.4-1.7-0.8-2.1-1.3C37.3,64.7,37,64,37,63.1c0-1.1,0.4-2,1.2-2.6c0.8-0.6,1.9-0.9,3.2-0.9c1.2,0,2.5,0.4,3.9,1.3l-0.9,2.3
		c-1-0.6-1.9-0.9-2.8-0.9c-0.9,0-1.4,0.2-1.4,0.7c0,0.3,0.1,0.6,0.3,0.7c0.2,0.1,0.5,0.3,1,0.4c0.6,0.2,1,0.3,1.3,0.4
		c0.3,0.1,0.7,0.3,1.1,0.5c0.5,0.2,0.8,0.5,1.1,0.7c0.2,0.2,0.4,0.6,0.6,1C45.7,67,45.8,67.5,45.8,68z"/>
	<path class="st0" d="M56.8,67.1h-6.7c0.2,1.4,1,2.1,2.4,2c0.5,0,0.9-0.1,1.5-0.3s0.9-0.5,1.3-0.9l1.2,1.9c-0.5,0.6-1.1,1-1.9,1.4
		c-0.8,0.4-1.6,0.6-2.3,0.6c-1.8,0-3.1-0.6-4-1.8c-0.9-1.2-1.4-2.6-1.4-4.2c0-0.8,0.1-1.5,0.3-2.3s0.5-1.4,0.9-1.9s0.9-1.1,1.6-1.4
		s1.4-0.5,2.3-0.5c1,0,1.8,0.2,2.5,0.6c0.7,0.4,1.2,0.9,1.6,1.6c0.4,0.7,0.6,1.5,0.7,2.3C56.8,65.1,56.8,66.1,56.8,67.1z M51.9,62.4
		c-0.5,0-1,0.2-1.3,0.6c-0.3,0.4-0.5,0.9-0.5,1.6h3.5C53.6,63.1,53,62.4,51.9,62.4z"/>
	<path class="st0" d="M66.1,67.8l1.4,1.9c-0.5,0.7-1.2,1.2-2,1.5s-1.6,0.5-2.4,0.5c-1.6,0-2.9-0.6-3.8-1.7s-1.4-2.6-1.4-4.3
		c0-1.7,0.5-3.1,1.4-4.3c1-1.2,2.3-1.8,3.9-1.8c1.6,0,2.9,0.5,4,1.5l-1.5,2.1c-0.7-0.6-1.5-0.9-2.3-0.9c-0.8,0-1.4,0.3-1.8,1
		s-0.6,1.5-0.6,2.6c0,0.9,0.2,1.6,0.6,2.2c0.4,0.6,1,0.9,1.7,0.9C64.5,69.1,65.4,68.7,66.1,67.8z"/>
	<path class="st0" d="M67.8,62.5v-2.7h1.7c0-1.7,0-3.1-0.1-4.2h3.1v4.2h2.2v2.7h-2.2v5.8c0,0.4,0.1,0.6,0.2,0.8
		c0.1,0.2,0.3,0.3,0.5,0.3s0.5-0.1,0.7-0.1s0.5-0.2,0.8-0.3l0.4,2.1c-0.3,0.2-0.7,0.4-1.2,0.6c-0.5,0.1-0.8,0.2-1.1,0.2
		c-1.1,0-2-0.3-2.5-0.9c-0.5-0.6-0.8-1.4-0.8-2.6v-5.9H67.8z"/>
	<path class="st0" d="M85.8,67.1h-6.7c0.2,1.4,1,2.1,2.4,2c0.5,0,0.9-0.1,1.5-0.3s0.9-0.5,1.3-0.9l1.2,1.9c-0.5,0.6-1.1,1-1.9,1.4
		c-0.8,0.4-1.6,0.6-2.3,0.6c-1.8,0-3.1-0.6-4-1.8s-1.4-2.6-1.4-4.2c0-0.8,0.1-1.5,0.3-2.3c0.2-0.7,0.5-1.4,0.9-1.9
		c0.4-0.6,0.9-1.1,1.6-1.4s1.4-0.5,2.3-0.5c1,0,1.8,0.2,2.5,0.6c0.7,0.4,1.2,0.9,1.6,1.6c0.4,0.7,0.6,1.5,0.7,2.3
		C85.8,65.1,85.8,66.1,85.8,67.1z M80.9,62.4c-0.5,0-1,0.2-1.3,0.6c-0.3,0.4-0.5,0.9-0.5,1.6h3.5C82.6,63.1,82,62.4,80.9,62.4z"/>
	<path class="st0" d="M86.3,62.5v-2.7H88c0-1.7,0-3.1-0.1-4.2H91v4.2h2.2v2.7H91v5.8c0,0.4,0.1,0.6,0.2,0.8c0.1,0.2,0.3,0.3,0.5,0.3
		c0.2,0,0.5-0.1,0.7-0.1s0.5-0.2,0.8-0.3l0.4,2.1c-0.3,0.2-0.7,0.4-1.2,0.6c-0.5,0.1-0.8,0.2-1.1,0.2c-1.1,0-2-0.3-2.5-0.9
		c-0.5-0.6-0.8-1.4-0.8-2.6v-5.9H86.3z"/>
	<path class="st0" d="M94.9,67.5v-4.1c0-1.3,0-2.5-0.1-3.5h3.2v7.4c0,1.3,0.5,1.9,1.4,1.9c0.4,0,0.8-0.2,1.2-0.7
		c0.3-0.5,0.5-1.1,0.5-1.7v-3.3c0-1.3,0-2.5-0.1-3.5h3.2v9c0,0.9,0.1,1.8,0.2,2.7h-2.7c-0.1-0.2-0.1-0.4-0.1-0.7
		c-0.7,0.7-1.6,1-2.6,1c-1.3,0-2.3-0.4-3-1.1C95.2,70,94.9,68.9,94.9,67.5z"/>
	<path class="st0" d="M106.3,71.4v-7.7c0-1.2,0-2.5-0.1-3.8h3.2v0.7c0.9-0.9,2-1.3,3.5-1l-0.5,2.9c-0.8-0.3-1.4-0.3-2,0
		s-0.9,0.8-1,1.5v7.3H106.3z"/>
	<path class="st0" d="M6.7,88.9c0.9-0.4,2.2-0.6,3.8-0.7c0-1-0.5-1.6-1.5-1.6c-1.3,0-2.2,0.5-2.9,1.4l-1.8-1.7C5.4,84.8,7,84,9.1,84
		c1.3,0,2.4,0.4,3.2,1.1c0.8,0.7,1.2,1.7,1.2,3.1v5.1c0,1,0.1,1.9,0.3,2.6h-2.7L11,95.2c-0.7,0.6-1.6,0.9-2.7,0.9
		c-1.2,0-2.1-0.3-2.9-1c-0.8-0.7-1.2-1.6-1.2-2.8C4.3,90.8,5.1,89.6,6.7,88.9z M7.3,92.3c0,0.4,0.1,0.6,0.3,0.8
		c0.2,0.2,0.5,0.3,0.8,0.3c0.8,0,1.4-0.2,1.7-0.6c0.3-0.4,0.5-1.1,0.5-2.1C8.4,90.8,7.3,91.3,7.3,92.3z"/>
	<path class="st0" d="M25.2,95.7h-2.7c-0.1-0.1-0.1-0.4-0.1-0.7c-0.7,0.7-1.6,1-2.6,1c-1.1,0-2-0.3-2.7-0.9s-1.3-1.3-1.6-2.2
		c-0.3-0.9-0.5-1.9-0.5-2.9c0-1.7,0.4-3.1,1.3-4.2c0.8-1.2,2.1-1.8,3.7-1.8c0.7,0,1.4,0.2,2.1,0.5v-1.2c0-1-0.1-2.1-0.2-3.4H25v13.3
		C25,94,25.1,94.8,25.2,95.7z M20.1,86.6c-0.7,0-1.2,0.3-1.5,0.9c-0.3,0.6-0.5,1.4-0.5,2.2c0,0.6,0,1.1,0.1,1.6
		c0.1,0.5,0.3,0.9,0.6,1.3c0.3,0.4,0.6,0.6,1.1,0.6c0.8,0,1.3-0.3,1.7-1c0.3-0.6,0.5-1.5,0.5-2.5C22,87.7,21.3,86.6,20.1,86.6z"/>
	<path class="st0" d="M29,79.3c0.5,0,1,0.2,1.4,0.6c0.4,0.4,0.6,0.9,0.6,1.4c0,0.6-0.2,1-0.6,1.4s-0.8,0.6-1.4,0.6s-1-0.2-1.4-0.6
		c-0.4-0.4-0.6-0.9-0.6-1.4c0-0.5,0.2-1,0.6-1.4C28,79.5,28.5,79.3,29,79.3z M27.5,95.6v-6.9c0-1.8,0-3.3-0.1-4.3h3.2v11.2H27.5z"/>
	<path class="st0" d="M33,98.9v-11c0-1.4,0-2.6-0.1-3.7H36v0.6c0.7-0.5,1.4-0.8,2.2-0.8c1.6,0,2.8,0.6,3.6,1.7
		c0.8,1.1,1.2,2.5,1.2,4.2c0,1.7-0.4,3.1-1.2,4.2c-0.8,1.1-2,1.7-3.6,1.7c-0.7,0-1.5-0.2-2.2-0.5v3.8H33z M39.5,87.4
		c-0.3-0.6-0.8-0.8-1.5-0.8c-0.7,0-1.2,0.3-1.5,0.8C36.1,88,36,88.7,36,89.6c0,1,0.2,1.8,0.5,2.4c0.3,0.6,0.9,0.9,1.6,0.9
		c0.6,0,1.1-0.3,1.4-1c0.3-0.6,0.5-1.4,0.5-2.3S39.8,88,39.5,87.4z"/>
	<path class="st0" d="M46.5,79.3c0.5,0,1,0.2,1.4,0.6c0.4,0.4,0.6,0.9,0.6,1.4c0,0.6-0.2,1-0.6,1.4s-0.8,0.6-1.4,0.6s-1-0.2-1.4-0.6
		c-0.4-0.4-0.6-0.9-0.6-1.4c0-0.5,0.2-1,0.6-1.4C45.5,79.5,46,79.3,46.5,79.3z M45,95.6v-6.9c0-1.8,0-3.3-0.1-4.3H48v11.2H45z"/>
	<path class="st0" d="M58.9,92.3c0,1.3-0.4,2.2-1.2,2.9c-0.8,0.7-1.9,1-3.2,1c-1.6,0-3.1-0.7-4.7-2l1.4-2.1c1.2,1,2.3,1.5,3.3,1.5
		c1,0,1.5-0.3,1.5-1c0-0.3-0.1-0.5-0.4-0.7c-0.2-0.2-0.5-0.3-0.8-0.4s-0.6-0.2-1-0.3c-0.4-0.1-0.7-0.2-0.8-0.2
		c-1-0.4-1.7-0.8-2.1-1.3c-0.5-0.5-0.7-1.2-0.7-2.1c0-1.1,0.4-2,1.2-2.6c0.8-0.6,1.9-0.9,3.2-0.9c1.2,0,2.5,0.4,3.9,1.3l-0.9,2.3
		c-1-0.6-1.9-0.9-2.8-0.9c-0.9,0-1.4,0.2-1.4,0.7c0,0.3,0.1,0.6,0.3,0.7c0.2,0.1,0.5,0.3,1,0.4c0.6,0.2,1,0.3,1.3,0.4
		c0.3,0.1,0.7,0.3,1.1,0.5c0.5,0.2,0.8,0.5,1.1,0.7c0.2,0.2,0.4,0.6,0.6,1C58.8,91.3,58.9,91.8,58.9,92.3z"/>
	<path class="st0" d="M68.2,92.1l1.4,1.9c-0.5,0.7-1.2,1.2-2,1.5s-1.6,0.5-2.4,0.5c-1.6,0-2.9-0.6-3.8-1.7s-1.4-2.6-1.4-4.3
		c0-1.7,0.5-3.1,1.4-4.3c1-1.2,2.3-1.8,3.9-1.8c1.6,0,2.9,0.5,4,1.5l-1.5,2.1c-0.7-0.6-1.5-0.9-2.3-0.9c-0.8,0-1.4,0.3-1.8,1
		S63,89.2,63,90.3c0,0.9,0.2,1.6,0.6,2.2c0.4,0.6,1,0.9,1.7,0.9C66.6,93.4,67.6,93,68.2,92.1z"/>
	<path class="st0" d="M72.6,79.3c0.5,0,1,0.2,1.4,0.6c0.4,0.4,0.6,0.9,0.6,1.4c0,0.6-0.2,1-0.6,1.4c-0.4,0.4-0.8,0.6-1.4,0.6
		s-1-0.2-1.4-0.6c-0.4-0.4-0.6-0.9-0.6-1.4c0-0.5,0.2-1,0.6-1.4C71.6,79.5,72.1,79.3,72.6,79.3z M71.1,95.6v-6.9
		c0-1.8,0-3.3-0.1-4.3h3.2v11.2H71.1z"/>
	<path class="st0" d="M76.6,95.6v-7.2c0-1.8,0-3.3-0.1-4.3h3.2v0.4c0.7-0.4,1.4-0.6,2.1-0.6c1.3,0,2.3,0.4,3,1.3s1.1,2,1.1,3.3v7h-3
		v-6.8c0-1.4-0.5-2.1-1.6-2.1c-0.3,0-0.7,0.1-1.1,0.4c-0.4,0.2-0.6,0.5-0.6,0.9v7.7H76.6z"/>
	<path class="st0" d="M95.4,82.3l2.7,1.2c-0.1,0.4-0.3,0.9-0.6,1.3c-0.3,0.4-0.7,0.7-1,0.9c0.4,0.6,0.7,1.3,0.7,2.2
		c0,0.9-0.3,1.7-0.8,2.2c-0.6,0.6-1.2,1-2,1.2c-0.7,0.2-1.6,0.3-2.5,0.2c-0.2,0-0.3,0-0.4,0.1c-0.1,0.1-0.1,0.2,0,0.3
		c0.1,0.1,0.2,0.2,0.4,0.2c0.2,0,0.5,0,1,0.1c0.5,0,0.8,0,1,0.1c2.4,0.3,3.6,1.2,3.7,2.8c0,0.7-0.1,1.3-0.4,1.9
		c-0.3,0.5-0.7,0.9-1.2,1.2s-1.1,0.5-1.7,0.6s-1.2,0.2-2,0.2c-0.9,0-1.8-0.1-2.5-0.3c-0.7-0.2-1.3-0.6-1.8-1.1
		c-0.5-0.5-0.7-1.2-0.7-2c0-0.9,0.4-1.6,1.2-2.2c-0.3-0.4-0.4-0.9-0.3-1.6c0.1-0.7,0.3-1.1,0.7-1.3c-0.9-0.7-1.4-1.6-1.4-2.6
		c0-1.3,0.5-2.2,1.4-2.9c0.9-0.7,2-1.1,3.3-1.1c0.9,0,1.6,0.1,2.2,0.3C95,83.6,95.3,83,95.4,82.3z M91.8,94c-0.4,0-0.6,0-0.7-0.1
		c-0.5,0.2-0.7,0.6-0.7,1.1c0,0.8,0.6,1.3,1.9,1.3c1.6,0,2.3-0.4,2.3-1.2c0-0.2-0.1-0.3-0.2-0.4s-0.3-0.2-0.4-0.3
		c-0.1-0.1-0.4-0.1-0.7-0.2c-0.4-0.1-0.6-0.1-0.7-0.1C92.5,94.1,92.2,94.1,91.8,94z M92.4,86.4c-1.1,0-1.7,0.5-1.7,1.4
		c0,0.4,0.2,0.8,0.5,1c0.3,0.2,0.7,0.3,1.2,0.3c0.5,0,0.9-0.1,1.2-0.3c0.3-0.2,0.5-0.5,0.5-1C94,86.9,93.5,86.4,92.4,86.4z"/>
	<path class="st0" d="M114.5,91.4h-6.7c0.2,1.4,1,2.1,2.4,2c0.5,0,0.9-0.1,1.5-0.3s0.9-0.5,1.3-0.9l1.2,1.9c-0.5,0.6-1.1,1-1.9,1.4
		c-0.8,0.4-1.6,0.6-2.3,0.6c-1.8,0-3.1-0.6-4-1.8s-1.4-2.6-1.4-4.2c0-0.8,0.1-1.5,0.3-2.3c0.2-0.7,0.5-1.4,0.9-1.9
		c0.4-0.6,0.9-1.1,1.6-1.4s1.4-0.5,2.3-0.5c1,0,1.8,0.2,2.5,0.6c0.7,0.4,1.2,0.9,1.6,1.6c0.4,0.7,0.6,1.5,0.7,2.3
		C114.6,89.4,114.6,90.4,114.5,91.4z M109.7,86.7c-0.5,0-1,0.2-1.3,0.6c-0.3,0.4-0.5,0.9-0.5,1.6h3.5
		C111.4,87.4,110.8,86.7,109.7,86.7z"/>
	<path class="st0" d="M116.5,92.8v-8.6c0-1.8,0-3.3-0.1-4.3h3.2v12.8c0,0.2,0,0.3,0,0.4c0,0.1,0,0.2,0.1,0.3
		c0.1,0.1,0.2,0.2,0.3,0.2c0.1,0,0.4,0,0.6,0l0.2,2.2c-0.6,0.1-1.1,0.2-1.5,0.2C117.4,95.9,116.5,94.9,116.5,92.8z"/>
	<path class="st0" d="M123.8,79.3c0.5,0,1,0.2,1.4,0.6c0.4,0.4,0.6,0.9,0.6,1.4c0,0.6-0.2,1-0.6,1.4c-0.4,0.4-0.8,0.6-1.4,0.6
		s-1-0.2-1.4-0.6s-0.6-0.9-0.6-1.4c0-0.5,0.2-1,0.6-1.4C122.8,79.5,123.3,79.3,123.8,79.3z M122.3,95.6v-6.9c0-1.8,0-3.3-0.1-4.3
		h3.2v11.2H122.3z"/>
	<path class="st0" d="M126.9,86.7V84h1.7c0-1.7,0-3.1-0.1-4.2h3.1V84h2.2v2.7h-2.2v5.8c0,0.4,0.1,0.6,0.2,0.8
		c0.1,0.2,0.3,0.3,0.5,0.3c0.2,0,0.5-0.1,0.7-0.1s0.5-0.2,0.8-0.3l0.4,2.1c-0.3,0.2-0.7,0.4-1.2,0.6c-0.5,0.1-0.8,0.2-1.1,0.2
		c-1.1,0-2-0.3-2.5-0.9c-0.5-0.6-0.8-1.4-0.8-2.6v-5.9H126.9z"/>
	<path class="st0" d="M135.7,93.8c0.4-0.4,0.8-0.6,1.3-0.6s1,0.2,1.3,0.6s0.6,0.9,0.6,1.4c0,0.5-0.2,1-0.6,1.4
		c-0.4,0.4-0.8,0.6-1.3,0.6c-0.5,0-1-0.2-1.3-0.6c-0.4-0.4-0.6-0.8-0.6-1.4C135.2,94.6,135.4,94.2,135.7,93.8z"/>
	<path class="st0" d="M15.5,115.7c-0.1,1.6-0.8,2.8-2,3.6c-1.2,0.8-2.6,1.1-4.3,0.9c-0.7-0.1-1.5-0.3-2.4-0.7s-1.7-0.9-2.4-1.5
		l1.4-2.3c1.5,1.1,2.7,1.7,3.8,1.8c0.7,0.1,1.3-0.1,1.8-0.4c0.5-0.4,0.8-0.9,0.8-1.5c0.1-1-0.4-1.8-1.6-2.1
		c-0.2-0.1-0.6-0.2-1.1-0.3s-0.9-0.2-1.1-0.3c-1.2-0.4-2.2-0.9-2.8-1.6c-0.7-0.6-1-1.5-1-2.7c0-1.4,0.5-2.5,1.6-3.4
		c1-0.8,2.3-1.2,3.9-1.1c1.6,0.1,3.1,0.7,4.7,1.8l-1.4,2.2c-1.3-0.8-2.5-1.3-3.5-1.4c-0.6,0-1.1,0.1-1.5,0.4
		c-0.4,0.3-0.6,0.7-0.6,1.2c0,0.3,0.1,0.6,0.3,0.8s0.5,0.5,0.8,0.6c0.4,0.2,0.7,0.3,1,0.4c0.3,0.1,0.7,0.2,1.1,0.3
		c0.4,0.1,0.7,0.2,0.8,0.2C14.5,111.6,15.7,113.2,15.5,115.7z"/>
	<path class="st0" d="M26.6,115.7h-6.7c0.2,1.4,1,2.1,2.4,2c0.5,0,0.9-0.1,1.5-0.3s0.9-0.5,1.3-0.9l1.2,1.9c-0.5,0.6-1.1,1-1.9,1.4
		c-0.8,0.4-1.6,0.6-2.3,0.6c-1.8,0-3.1-0.6-4-1.8c-0.9-1.2-1.4-2.6-1.4-4.2c0-0.8,0.1-1.5,0.3-2.3s0.5-1.4,0.9-1.9s0.9-1.1,1.6-1.4
		s1.4-0.5,2.3-0.5c1,0,1.8,0.2,2.5,0.6c0.7,0.4,1.2,0.9,1.6,1.6c0.4,0.7,0.6,1.5,0.7,2.3C26.6,113.7,26.7,114.6,26.6,115.7z
		 M21.7,110.9c-0.5,0-1,0.2-1.3,0.6c-0.3,0.4-0.5,0.9-0.5,1.6h3.5C23.4,111.7,22.9,110.9,21.7,110.9z"/>
	<path class="st0" d="M37.8,119.9h-2.7c-0.1-0.1-0.1-0.4-0.1-0.7c-0.7,0.7-1.6,1-2.6,1c-1.1,0-2-0.3-2.7-0.9s-1.3-1.3-1.6-2.2
		c-0.3-0.9-0.5-1.9-0.5-2.9c0-1.7,0.4-3.1,1.3-4.2c0.8-1.2,2.1-1.8,3.7-1.8c0.7,0,1.4,0.2,2.1,0.5v-1.2c0-1-0.1-2.1-0.2-3.4h3.2
		v13.3C37.6,118.2,37.7,119.1,37.8,119.9z M32.6,110.9c-0.7,0-1.2,0.3-1.5,0.9c-0.3,0.6-0.5,1.4-0.5,2.2c0,0.6,0,1.1,0.1,1.6
		c0.1,0.5,0.3,0.9,0.6,1.3c0.3,0.4,0.6,0.6,1.1,0.6c0.8,0,1.3-0.3,1.7-1c0.3-0.6,0.5-1.5,0.5-2.5C34.6,112,33.9,110.9,32.6,110.9z"
		/>
	<path class="st0" d="M44.8,111v-2.7h1.7c0-1.7,0-3.1-0.1-4.2h3.1v4.2h2.2v2.7h-2.2v5.8c0,0.4,0.1,0.6,0.2,0.8
		c0.1,0.2,0.3,0.3,0.5,0.3c0.2,0,0.5-0.1,0.7-0.1c0.2-0.1,0.5-0.2,0.8-0.3l0.4,2.1c-0.3,0.2-0.7,0.4-1.2,0.6s-0.8,0.2-1.1,0.2
		c-1.1,0-2-0.3-2.5-0.9c-0.5-0.6-0.8-1.4-0.8-2.6V111H44.8z"/>
	<path class="st0" d="M55.3,113.2c0.9-0.4,2.2-0.6,3.8-0.7c0-1-0.5-1.6-1.5-1.6c-1.3,0-2.2,0.5-2.9,1.4l-1.8-1.7
		c1.1-1.6,2.6-2.4,4.8-2.4c1.3,0,2.4,0.4,3.2,1.1c0.8,0.7,1.2,1.7,1.2,3.1v5.1c0,1,0.1,1.9,0.3,2.6h-2.7l-0.1-0.6
		c-0.7,0.6-1.6,0.9-2.7,0.9c-1.2,0-2.1-0.3-2.9-1c-0.8-0.7-1.2-1.6-1.2-2.8C52.9,115.1,53.7,113.9,55.3,113.2z M55.9,116.6
		c0,0.4,0.1,0.6,0.3,0.8c0.2,0.2,0.5,0.3,0.8,0.3c0.8,0,1.4-0.2,1.7-0.6c0.3-0.4,0.5-1.1,0.5-2.1C57,115,55.9,115.6,55.9,116.6z"/>
	<path class="st0" d="M64.3,119.9v-7.2c0-1.8,0-3.3-0.1-4.3h3.2v0.6c0.6-0.5,1.3-0.8,2-0.8c1.2,0,2.2,0.4,2.8,1.3c1-0.8,2-1.3,3-1.3
		c1.3,0,2.2,0.4,2.9,1.2c0.6,0.8,1,1.9,1,3.3v7.2h-3v-7c0-1.3-0.4-2-1.2-2c-0.2,0-0.4,0-0.6,0.1c-0.2,0.1-0.4,0.2-0.6,0.4
		c-0.2,0.2-0.3,0.5-0.3,0.9v7.6h-3v-7c0-1.3-0.4-2-1.3-2c-0.3,0-0.7,0.1-1,0.3c-0.3,0.2-0.5,0.5-0.5,1v7.7H64.3z"/>
	<path class="st0" d="M90.8,115.7h-6.7c0.2,1.4,1,2.1,2.4,2c0.5,0,0.9-0.1,1.5-0.3s0.9-0.5,1.3-0.9l1.2,1.9c-0.5,0.6-1.1,1-1.9,1.4
		c-0.8,0.4-1.6,0.6-2.3,0.6c-1.8,0-3.1-0.6-4-1.8s-1.4-2.6-1.4-4.2c0-0.8,0.1-1.5,0.3-2.3c0.2-0.7,0.5-1.4,0.9-1.9
		c0.4-0.6,0.9-1.1,1.6-1.4s1.4-0.5,2.3-0.5c1,0,1.8,0.2,2.5,0.6c0.7,0.4,1.2,0.9,1.6,1.6c0.4,0.7,0.6,1.5,0.7,2.3
		C90.8,113.7,90.8,114.6,90.8,115.7z M85.9,110.9c-0.5,0-1,0.2-1.3,0.6c-0.3,0.4-0.5,0.9-0.5,1.6h3.5
		C87.6,111.7,87,110.9,85.9,110.9z"/>
	<path class="st0" d="M92.3,119.9v-7.2c0-1.8,0-3.3-0.1-4.3h3.2v0.4c0.7-0.4,1.4-0.6,2.1-0.6c1.3,0,2.3,0.4,3,1.3s1.1,2,1.1,3.3v7
		h-3v-6.8c0-1.4-0.5-2.1-1.6-2.1c-0.3,0-0.7,0.1-1.1,0.4c-0.4,0.2-0.6,0.5-0.6,0.9v7.7H92.3z"/>
	<path class="st0" d="M119,115.7h-6.7c0.2,1.4,1,2.1,2.4,2c0.5,0,0.9-0.1,1.5-0.3s0.9-0.5,1.3-0.9l1.2,1.9c-0.5,0.6-1.1,1-1.9,1.4
		c-0.8,0.4-1.6,0.6-2.3,0.6c-1.8,0-3.1-0.6-4-1.8s-1.4-2.6-1.4-4.2c0-0.8,0.1-1.5,0.3-2.3c0.2-0.7,0.5-1.4,0.9-1.9
		c0.4-0.6,0.9-1.1,1.6-1.4s1.4-0.5,2.3-0.5c1,0,1.8,0.2,2.5,0.6c0.7,0.4,1.2,0.9,1.6,1.6c0.4,0.7,0.6,1.5,0.7,2.3
		C119,113.7,119,114.6,119,115.7z M114.1,110.9c-0.5,0-1,0.2-1.3,0.6c-0.3,0.4-0.5,0.9-0.5,1.6h3.5
		C115.8,111.7,115.2,110.9,114.1,110.9z"/>
	<path class="st0" d="M129,116.5c0,1.3-0.4,2.2-1.2,2.9c-0.8,0.7-1.9,1-3.2,1c-1.6,0-3.2-0.7-4.7-2l1.4-2.1c1.2,1,2.3,1.5,3.3,1.5
		c1,0,1.5-0.3,1.5-1c0-0.3-0.1-0.5-0.4-0.7c-0.2-0.2-0.5-0.3-0.8-0.4c-0.3-0.1-0.6-0.2-1-0.3c-0.4-0.1-0.7-0.2-0.8-0.2
		c-1-0.4-1.7-0.8-2.1-1.3s-0.7-1.2-0.7-2.1c0-1.1,0.4-2,1.2-2.6c0.8-0.6,1.9-0.9,3.2-0.9c1.2,0,2.5,0.4,3.9,1.3l-0.9,2.3
		c-1-0.6-1.9-0.9-2.8-0.9c-0.9,0-1.4,0.2-1.4,0.7c0,0.3,0.1,0.6,0.3,0.7c0.2,0.1,0.5,0.3,1,0.4c0.6,0.2,1,0.3,1.3,0.4
		c0.3,0.1,0.7,0.3,1.1,0.5s0.8,0.5,1.1,0.7c0.2,0.2,0.4,0.6,0.6,1C128.9,115.6,129,116,129,116.5z"/>
	<path class="st0" d="M129.5,111v-2.7h1.7c0-1.7,0-3.1-0.1-4.2h3.1v4.2h2.2v2.7h-2.2v5.8c0,0.4,0.1,0.6,0.2,0.8
		c0.1,0.2,0.3,0.3,0.5,0.3c0.2,0,0.5-0.1,0.7-0.1s0.5-0.2,0.8-0.3l0.4,2.1c-0.3,0.2-0.7,0.4-1.2,0.6c-0.5,0.1-0.8,0.2-1.1,0.2
		c-1.1,0-2-0.3-2.5-0.9c-0.5-0.6-0.8-1.4-0.8-2.6V111H129.5z"/>
	<path class="st0" d="M6.7,137.5c0.9-0.4,2.2-0.6,3.8-0.7c0-1-0.5-1.6-1.5-1.6c-1.3,0-2.2,0.5-2.9,1.4l-1.8-1.7
		c1.1-1.6,2.6-2.4,4.8-2.4c1.3,0,2.4,0.4,3.2,1.1c0.8,0.7,1.2,1.7,1.2,3.1v5.1c0,1,0.1,1.9,0.3,2.6h-2.7l-0.1-0.6
		c-0.7,0.6-1.6,0.9-2.7,0.9c-1.2,0-2.1-0.3-2.9-1c-0.8-0.7-1.2-1.6-1.2-2.8C4.3,139.3,5.1,138.2,6.7,137.5z M7.3,140.9
		c0,0.4,0.1,0.6,0.3,0.8c0.2,0.2,0.5,0.3,0.8,0.3c0.8,0,1.4-0.2,1.7-0.6c0.3-0.4,0.5-1.1,0.5-2.1C8.4,139.3,7.3,139.9,7.3,140.9z"/>
	<path class="st0" d="M15.9,141.3v-8.6c0-1.8,0-3.3-0.1-4.3h3.2v12.8c0,0.2,0,0.3,0,0.4c0,0.1,0,0.2,0.1,0.3
		c0.1,0.1,0.2,0.2,0.3,0.2c0.1,0,0.4,0,0.6,0l0.2,2.2c-0.6,0.1-1.1,0.2-1.5,0.2C16.8,144.5,15.9,143.4,15.9,141.3z"/>
	<path class="st0" d="M23.3,127.8c0.5,0,1,0.2,1.4,0.6c0.4,0.4,0.6,0.9,0.6,1.4c0,0.6-0.2,1-0.6,1.4s-0.8,0.6-1.4,0.6
		s-1-0.2-1.4-0.6c-0.4-0.4-0.6-0.9-0.6-1.4c0-0.5,0.2-1,0.6-1.4C22.3,128,22.8,127.8,23.3,127.8z M21.8,144.2v-6.9
		c0-1.8,0-3.3-0.1-4.3h3.2v11.2H21.8z"/>
	<path class="st0" d="M36.7,132.7v14.8h-3v-3.7c-0.6,0.3-1.4,0.5-2.1,0.5c-1.6,0-2.8-0.6-3.7-1.7s-1.2-2.5-1.2-4.2
		c0-1.1,0.2-2,0.5-2.9c0.4-0.9,0.9-1.6,1.7-2.1s1.7-0.8,2.8-0.8c0.8,0,1.4,0.2,2,0.7v-0.5H36.7z M31.8,135.2c-0.7,0-1.2,0.3-1.5,0.9
		s-0.5,1.3-0.5,2.2c0,0.9,0.2,1.7,0.5,2.3s0.8,1,1.5,1c1.4,0,2-1.1,2-3.4c0-0.9-0.2-1.6-0.5-2.2C33,135.4,32.5,135.2,31.8,135.2z"/>
	<path class="st0" d="M38.9,140.4v-4.1c0-1.3,0-2.5-0.1-3.5h3.2v7.4c0,1.3,0.5,1.9,1.4,1.9c0.4,0,0.8-0.2,1.2-0.7
		c0.3-0.5,0.5-1.1,0.5-1.7v-3.3c0-1.3,0-2.5-0.1-3.5h3.2v9c0,0.9,0.1,1.8,0.2,2.7h-2.7c-0.1-0.2-0.1-0.4-0.1-0.7
		c-0.7,0.7-1.6,1-2.6,1c-1.3,0-2.3-0.4-3-1.1C39.2,142.8,38.9,141.8,38.9,140.4z"/>
	<path class="st0" d="M52,127.8c0.5,0,1,0.2,1.4,0.6c0.4,0.4,0.6,0.9,0.6,1.4c0,0.6-0.2,1-0.6,1.4s-0.8,0.6-1.4,0.6s-1-0.2-1.4-0.6
		c-0.4-0.4-0.6-0.9-0.6-1.4c0-0.5,0.2-1,0.6-1.4C51,128,51.5,127.8,52,127.8z M50.5,144.2v-6.9c0-1.8,0-3.3-0.1-4.3h3.2v11.2H50.5z"
		/>
	<path class="st0" d="M65.7,144.2H63c-0.1-0.1-0.1-0.4-0.1-0.7c-0.7,0.7-1.6,1-2.6,1c-1.1,0-2-0.3-2.7-0.9s-1.3-1.3-1.6-2.2
		c-0.3-0.9-0.5-1.9-0.5-2.9c0-1.7,0.4-3.1,1.3-4.2c0.8-1.2,2.1-1.8,3.7-1.8c0.7,0,1.4,0.2,2.1,0.5v-1.2c0-1-0.1-2.1-0.2-3.4h3.2
		v13.3C65.4,142.5,65.5,143.3,65.7,144.2z M60.5,135.2c-0.7,0-1.2,0.3-1.5,0.9c-0.3,0.6-0.5,1.4-0.5,2.2c0,0.6,0,1.1,0.1,1.6
		c0.1,0.5,0.3,0.9,0.6,1.3c0.3,0.4,0.6,0.6,1.1,0.6c0.8,0,1.3-0.3,1.7-1c0.3-0.6,0.5-1.5,0.5-2.5C62.4,136.2,61.8,135.2,60.5,135.2z
		"/>
	<path class="st0" d="M70.8,143.2c0.1,1.5-0.7,3-2.2,4.3l-1.5-0.7c0.3-0.2,0.5-0.5,0.7-0.8s0.4-0.7,0.4-0.9
		c-0.4-0.1-0.7-0.3-0.9-0.6c-0.2-0.3-0.4-0.7-0.4-1.2c0-0.5,0.1-0.9,0.4-1.3c0.3-0.4,0.7-0.6,1.2-0.7c0.6-0.1,1.2,0.1,1.5,0.5
		C70.5,142.2,70.8,142.7,70.8,143.2z"/>
</g>
</svg>
